<?xml version="1.0" standalone="no"?>
<!DOCTYPE svg PUBLIC "-//W3C//DTD SVG 20010904//EN"
 "http://www.w3.org/TR/2001/REC-SVG-20010904/DTD/svg10.dtd">
<svg version="1.0" xmlns="http://www.w3.org/2000/svg"
 width="256.000000pt" height="256.000000pt" viewBox="0 0 256.000000 256.000000"
 preserveAspectRatio="xMidYMid meet">
<metadata>
Created by potrace 1.14, written by Peter Selinger 2001-2017
</metadata>
<g transform="translate(0.000000,256.000000) scale(0.100000,-0.100000)"
fill="#000000" stroke="none">
<path d="M127 2451 c-12 -8 -25 -20 -29 -25 -5 -7 -8 -7 -8 -1 0 6 -5 3 -10
-5 -7 -10 -12 -11 -18 -4 -13 19 -40 24 -46 8 -9 -23 -7 -894 2 -894 25 -1
432 147 432 157 0 6 -58 184 -130 395 -72 210 -130 383 -130 383 0 7 -48 -3
-63 -14z"/>
<path d="M1562 2460 c3 -8 14 -41 24 -73 16 -52 19 -56 27 -35 6 14 11 18 14
11 3 -7 12 -13 21 -13 12 0 13 3 4 12 -7 7 -12 16 -12 21 0 5 7 1 16 -7 16
-17 44 -22 44 -8 0 4 -14 13 -31 21 -23 10 -28 16 -18 22 20 12 31 11 23 -3
-4 -7 -3 -8 5 -4 19 12 7 31 -20 31 -18 1 -24 -5 -26 -23 -2 -33 -21 -52 -33
-32 -14 22 -12 53 3 44 6 -4 5 -1 -3 7 -8 8 -21 21 -29 29 -12 13 -13 13 -9 0z"/>
<path d="M1978 2463 c7 -3 16 -2 19 1 4 3 -2 6 -13 5 -11 0 -14 -3 -6 -6z"/>
<path d="M2077 2463 c-4 -3 -7 -11 -7 -17 0 -6 5 -5 12 2 6 6 9 14 7 17 -3 3
-9 2 -12 -2z"/>
<path d="M1797 2453 c-10 -9 -9 -23 2 -23 5 0 11 7 15 15 5 15 -5 20 -17 8z"/>
<path d="M1830 2449 c0 -17 -45 -61 -54 -52 -7 7 -7 5 -10 -54 -1 -24 1 -37 6
-30 4 6 8 22 8 35 0 12 5 22 11 22 7 0 8 -13 4 -38 -5 -30 -2 -42 11 -53 15
-12 16 -12 10 8 -4 12 -2 24 4 28 9 6 14 -7 11 -27 0 -5 4 -8 9 -8 15 0 12 33
-5 56 -8 12 -11 24 -7 28 3 4 0 11 -8 16 -12 7 -13 13 -3 27 6 10 16 17 22 16
13 -4 14 7 1 27 -9 13 -10 13 -10 -1z"/>
<path d="M1887 2446 c-4 -10 -1 -13 9 -9 15 6 19 23 5 23 -5 0 -11 -7 -14 -14z"/>
<path d="M1940 2453 c-8 -4 -21 -12 -28 -20 -17 -16 -39 -17 -46 0 -2 6 -2 -5
0 -27 4 -26 2 -36 -5 -31 -6 3 -11 13 -11 21 0 8 -5 12 -10 9 -11 -7 -3 -54
11 -69 5 -6 9 -20 9 -33 0 -13 5 -23 10 -23 6 0 10 -5 10 -11 0 -5 -4 -8 -9
-5 -5 3 -11 0 -14 -8 -6 -15 19 -30 34 -20 6 3 7 15 3 27 -5 18 -4 20 7 10 7
-7 19 -13 27 -13 7 0 20 -7 28 -15 14 -13 14 -15 0 -15 -9 0 -16 -5 -16 -11 0
-5 5 -7 10 -4 6 3 10 2 10 -4 0 -12 -48 -27 -57 -18 -3 4 2 18 11 32 9 14 12
25 7 25 -5 0 -13 -9 -16 -20 -4 -11 -11 -18 -16 -15 -15 10 -10 -12 7 -26 13
-11 34 -7 132 25 64 21 121 45 125 52 4 8 13 14 20 14 8 0 6 -4 -3 -11 -18
-13 -30 -16 168 51 149 51 183 69 139 76 -9 1 -15 -2 -11 -7 3 -5 -6 -14 -20
-20 -19 -9 -29 -8 -47 5 -29 20 -50 21 -43 1 4 -9 0 -15 -10 -15 -10 0 -13 -5
-9 -16 4 -12 2 -15 -8 -12 -8 3 -13 12 -13 20 1 13 -2 13 -27 1 -16 -8 -29
-17 -29 -19 0 -3 5 -2 10 1 6 3 10 2 10 -2 0 -5 -13 -17 -30 -26 -17 -11 -30
-14 -30 -7 0 6 7 13 15 16 22 9 18 26 -4 19 -11 -3 -22 -1 -26 5 -4 7 -12 7
-26 0 -11 -7 -19 -7 -19 -1 0 5 6 12 13 15 6 4 2 4 -10 2 -13 -2 -23 0 -23 5
0 12 57 11 81 -1 13 -7 19 -7 19 0 0 5 -5 10 -12 10 -9 0 -9 3 -1 11 14 14 47
4 38 -11 -3 -5 -1 -10 5 -10 12 0 60 48 60 60 0 16 -27 17 -51 3 l-24 -14 27
5 c22 5 25 3 21 -13 -4 -16 -8 -17 -28 -7 -13 6 -26 19 -29 30 -3 11 -9 15
-16 11 -7 -4 -16 -1 -21 6 -7 11 -9 10 -9 -4 0 -16 -5 -17 -31 -12 -22 5 -34
3 -40 -6 -7 -11 -9 -11 -9 3 0 16 -15 19 -35 6 -13 -8 -30 2 -38 22 -4 11 -6
11 -6 -4 -1 -10 -6 -16 -14 -13 -18 7 -14 -38 5 -60 9 -10 18 -37 21 -61 5
-48 14 -63 23 -38 3 9 13 16 21 16 8 0 11 5 8 10 -4 6 -14 9 -23 8 -11 -2 -18
5 -20 20 -2 15 2 22 13 22 11 0 15 5 11 15 -3 8 -1 15 4 15 5 0 13 -12 16 -26
4 -15 12 -23 20 -20 8 3 11 -2 9 -16 -3 -12 0 -27 6 -35 9 -10 6 -15 -12 -22
-13 -5 -27 -7 -31 -4 -5 2 -8 0 -8 -5 0 -5 -9 -12 -20 -15 -16 -4 -20 0 -20
19 0 15 -6 24 -16 24 -8 0 -12 5 -9 10 3 6 1 10 -4 10 -11 0 -15 -13 -12 -37
1 -7 -4 -13 -10 -13 -7 0 -10 3 -6 6 9 9 -21 36 -33 29 -5 -3 -9 7 -9 22 0 15
-1 42 -1 58 -1 46 2 65 12 65 5 0 7 -10 5 -22 -2 -13 -1 -33 2 -44 5 -17 10
-20 28 -13 19 7 20 11 10 33 -7 14 -15 26 -19 26 -5 0 -8 7 -8 15 0 8 -7 15
-16 15 -8 0 -12 5 -9 10 7 11 7 11 -15 3z m-5 -45 c-1 -13 -3 -29 -4 -36 0 -7
-6 -10 -11 -7 -6 4 -8 15 -5 26 4 10 2 19 -4 19 -5 0 -8 -17 -6 -37 2 -21 1
-32 -1 -25 -8 17 -21 15 -21 -4 0 -9 11 -23 24 -31 13 -8 23 -22 23 -29 0 -8
-16 4 -36 25 -35 40 -35 40 -18 68 18 29 43 53 55 53 3 0 5 -10 4 -22z m153
-19 c-11 -6 -24 -6 -34 -1 -12 7 -8 9 18 10 26 1 30 -1 16 -9z m87 1 c3 -5 1
-10 -4 -10 -6 0 -11 5 -11 10 0 6 2 10 4 10 3 0 8 -4 11 -10z m220 -30 c3 -5
1 -10 -4 -10 -6 0 -11 5 -11 10 0 6 2 10 4 10 3 0 8 -4 11 -10z m-188 -53 c0
-7 -8 -14 -18 -14 -12 -1 -15 4 -12 17 5 20 30 17 30 -3z m110 17 c-3 -3 -12
-4 -19 -1 -8 3 -5 6 6 6 11 1 17 -2 13 -5z m-147 -8 c0 -3 -4 -8 -10 -11 -5
-3 -10 -1 -10 4 0 6 5 11 10 11 6 0 10 -2 10 -4z m-149 -89 c-10 -9 -11 -8 -5
6 3 10 9 15 12 12 3 -3 0 -11 -7 -18z"/>
<path d="M2330 2449 c0 -5 5 -7 10 -4 6 3 10 8 10 11 0 2 -4 4 -10 4 -5 0 -10
-5 -10 -11z"/>
<path d="M1710 2435 c-1 -5 -2 -14 -1 -19 1 -5 -4 -13 -11 -19 -9 -6 -8 -7 5
-3 9 3 17 0 17 -6 0 -6 2 -9 5 -7 2 3 0 18 -4 35 -5 16 -10 25 -11 19z"/>
<path d="M2373 2406 c4 -14 57 -21 57 -8 0 5 -14 12 -30 14 -19 3 -29 1 -27
-6z"/>
<path d="M2524 2405 c3 -8 0 -15 -6 -15 -6 0 -9 -3 -5 -6 3 -3 14 -1 24 5 11
6 13 11 5 11 -7 0 -10 5 -7 10 3 6 1 10 -5 10 -7 0 -10 -7 -6 -15z"/>
<path d="M2330 2396 c0 -23 16 -27 17 -5 1 10 -2 19 -8 19 -5 0 -9 -6 -9 -14z"/>
<path d="M2020 2351 c0 -6 -7 -11 -16 -11 -9 0 -12 -5 -8 -12 5 -8 2 -9 -10
-5 -14 6 -15 4 -5 -14 11 -21 11 -21 28 5 10 14 21 23 24 19 4 -3 7 -1 7 5 0
6 -4 14 -10 17 -5 3 -10 1 -10 -4z"/>
<path d="M1695 2340 c3 -5 8 -10 11 -10 2 0 4 5 4 10 0 6 -5 10 -11 10 -5 0
-7 -4 -4 -10z"/>
<path d="M1625 2330 c3 -5 11 -10 16 -10 6 0 7 5 4 10 -3 6 -11 10 -16 10 -6
0 -7 -4 -4 -10z"/>
<path d="M1660 2330 c0 -6 -6 -17 -12 -24 -11 -11 -15 -11 -26 3 -11 14 -12
13 -6 -9 12 -46 25 -73 30 -67 3 3 1 15 -6 26 -6 12 -7 21 -1 21 5 0 18 3 28
6 16 5 16 4 -1 -10 -26 -21 -8 -44 21 -27 16 11 15 11 -6 5 -16 -4 -21 -3 -17
5 4 6 13 11 21 11 8 0 17 6 21 13 4 6 4 9 -1 5 -4 -4 -14 -3 -22 3 -16 14 -18
43 -1 33 7 -4 8 -3 4 4 -9 15 -26 16 -26 2z"/>
<path d="M2080 2330 c0 -5 5 -10 11 -10 5 0 7 5 4 10 -3 6 -8 10 -11 10 -2 0
-4 -4 -4 -10z"/>
<path d="M1735 2320 c-3 -5 -1 -10 4 -10 6 0 11 5 11 10 0 6 -2 10 -4 10 -3 0
-8 -4 -11 -10z"/>
<path d="M1710 2311 c0 -6 4 -13 10 -16 6 -3 7 1 4 9 -7 18 -14 21 -14 7z"/>
<path d="M1758 2253 c7 -3 16 -2 19 1 4 3 -2 6 -13 5 -11 0 -14 -3 -6 -6z"/>
<path d="M1080 1943 l0 -267 -32 31 c-97 92 -272 107 -416 37 -146 -71 -234
-225 -248 -434 -14 -215 81 -417 234 -494 151 -76 337 -47 439 68 22 25 43 46
47 46 3 0 6 -17 6 -39 0 -21 3 -53 6 -70 l7 -31 134 0 c119 0 134 2 129 16 -3
9 -6 328 -6 710 l0 694 -150 0 -150 0 0 -267z m-122 -398 c44 -19 78 -49 100
-90 14 -24 17 -58 17 -165 0 -119 -3 -140 -21 -175 -27 -49 -49 -70 -97 -90
-106 -44 -221 22 -257 149 -20 74 -9 210 23 273 50 97 143 136 235 98z"/>
<path d="M1703 2190 c-102 -23 -149 -120 -104 -214 29 -59 91 -92 158 -82 96
13 148 72 140 159 -9 99 -94 159 -194 137z"/>
<path d="M1588 1273 c-3 -547 -3 -540 -66 -606 -26 -27 -104 -57 -149 -57 -21
0 -23 -3 -19 -32 8 -46 26 -187 26 -200 0 -7 23 -8 68 -3 246 25 374 126 428
337 14 52 17 147 21 561 l5 497 -155 0 -156 0 -3 -497z"/>
<path d="M2405 969 c-77 -27 -213 -74 -302 -105 -156 -54 -163 -58 -163 -83 0
-38 -37 -165 -62 -214 -35 -70 -121 -151 -196 -185 -122 -56 -303 -80 -335
-44 -10 11 -21 59 -30 130 -9 63 -17 116 -20 118 -5 6 -1269 -415 -1281 -426
-30 -29 52 -131 121 -149 30 -8 361 -11 1165 -9 1039 3 1125 4 1154 20 43 23
81 71 94 116 11 43 14 883 3 881 -5 -1 -71 -23 -148 -50z"/>
</g>
</svg>
